# xmcd
#
# Track frame offsets:
#	150
#	12363
#	32709
#	58163
#	73867
#	84440
#	94392
#	111851
#	124722
#	137945
#	158160
#	172474
#	184145
#	199130
#
# Disc length: 2900 seconds
#
# Revision: 0
# Processed by: cddbd v1.5.1PL2 Copyright (c) Steve Scherf et al.
# Submitted via: audiograbber 1.83.01
#
DISCID=d10b520e
DTITLE=Various Artist - SBG007
DYEAR=1900
DGENRE=Other
TTITLE0=Creedence Clearwater - Bad Moon Rising
TTITLE1=ABBA - Fernando
TTITLE2=Irene Cara - Fame
TTITLE3=Perry Como - And I Love You So
TTITLE4=Doris Day - Que Sera Sera
TTITLE5=Elvis Presley - Teddy Bear
TTITLE6=Bette Midler - The Rose
TTITLE7=Bee Gees - Massachusetts
TTITLE8=Elvis Presley - Burning Love
TTITLE9=Elvis Presley - Suspicious Minds
TTITLE10=Elvis Presley - I Want You I Need You I Love You
TTITLE11=Jonnie Ray - Just Walking In The Rain
TTITLE12=Lynn Anderson - Rose Garden
TTITLE13=The Kingston Trio - Where Have All The Flowers Gone
EXTD=
EXTT0=
EXTT1=
EXTT2=
EXTT3=
EXTT4=
EXTT5=
EXTT6=
EXTT7=
EXTT8=
EXTT9=
EXTT10=
EXTT11=
EXTT12=
EXTT13=
PLAYORDER=
